<svg width="17" height="17" viewBox="0 0 17 17" fill="none" xmlns="http://www.w3.org/2000/svg">
<path d="M12.1135 10.4822H11.3479L11.0765 10.2249C12.0262 9.13855 12.598 7.72823 12.598 6.19402C12.598 2.77301 9.77798 0 6.299 0C2.82001 0 0 2.77301 0 6.19402C0 9.61502 2.82001 12.388 6.299 12.388C7.85921 12.388 9.29345 11.8258 10.3982 10.8919L10.6598 11.1588V11.9116L15.5052 16.6667L16.9492 15.2468L12.1135 10.4822ZM6.299 10.4822C3.886 10.4822 1.93815 8.5668 1.93815 6.19402C1.93815 3.82123 3.886 1.90585 6.299 1.90585C8.712 1.90585 10.6598 3.82123 10.6598 6.19402C10.6598 8.5668 8.712 10.4822 6.299 10.4822Z" fill="black" fill-opacity="0.87"/>
</svg>
